<svg width="127.99997" height="128.02408" version="1.0" xmlns="http://www.w3.org/2000/svg">
 <path id="arch-linux-logo" d="m63.987967-1.6308594e-6c-5.69825 13.97059-9.13516 23.109001-15.47941 36.66429 3.88982 4.12321 8.6644 8.9249 16.41828 14.34794-8.33619-3.43029-14.02249-6.87422-18.27196-10.44799-8.119428 16.94244-20.840244 41.07619-46.654877 87.459842 20.289435-11.71344 36.017444-18.93491 50.675197-21.69043-0.62941-2.70707-0.98725-5.63531-0.96296-8.690612l0.0241-0.64999c0.32194-12.9989 7.08396-22.99506 15.09422-22.31634 8.01026 0.67871 14.23656 11.77295 13.91461 24.77185-0.0605 2.445992-0.33644 4.799002-0.81851 6.981392 14.49861 2.83618 30.058453 10.03915 50.073363 21.59413-3.94655-7.26588-7.46919-13.81553-10.83318-20.05342-5.29883-4.10694-10.82578-9.452152-22.099683-15.238662 7.749033 2.01353 13.297253 4.33659 17.621973 6.93323-34.202633-63.679309-36.972303-72.140979-48.701153-99.66523z" style="fill-rule:evenodd;fill:#aaaaac"/>
</svg>
