<svg width="128" height="128" version="1.0" xmlns="http://www.w3.org/2000/svg">
 <path d="m63.998047 0c-35.330801 0-63.972981 28.630724-63.998047 63.957031v49.529299c0.0190136 8.02106 6.524773 14.51367 14.550781 14.51367h49.47461c35.334889-0.01385 63.974609-28.658116 63.974609-63.996094 0-35.347378-28.655261-64.003906-64.001953-64.003906zm18.902344 15.109375c16.495689 0 30.023439 13.525599 30.023439 30.021484 0 16.495893-13.52774 30.023438-30.023439 30.023438-1.10995-0.0073-2.318578-0.0066-3.384766 0.02734h-12.580078v15.921875c0 13.479038-8.880568 24.885338-21.109375 28.687508-0.588612 0.18301-1.187503 0.34307-1.791016 0.49023-0.253259 0.0625-0.507992 0.11977-0.763672 0.17578-0.366564 0.0792-0.736011 0.14912-1.107422 0.21485-0.568896 0.10212-1.143476 0.18468-1.722656 0.2539-0.198494 0.0233-0.396044 0.0509-0.595703 0.0703-0.445432 0.0442-0.893028 0.0774-1.34375 0.10157-0.07721 4e-3 -0.155059 4e-3 -0.232422 8e-3 -0.456468 0.0209-0.909763 0.0527-1.371093 0.0527-16.495695-1.5e-4 -30.023438-13.5277-30.023438-30.023584 0-16.495893 13.527737-30.023438 30.023438-30.023438 7.579681-4.52e-4 11.289755 0.0026 15.853515 0.0059v-15.908244c0-12.991911 8.250257-24.056581 19.796875-28.24414 0.01926-0.0071 0.03932-0.01243 0.05859-0.01953 3.534592-1.071756 7.187185-1.814684 10.292969-1.835937zm-0.111329 14.244141c-8.745586 0-15.838174 7.08439-15.853515 15.830078v13.777344c0 1.034204 0.7069 1.895479 1.662109 2.15039h14.302735c8.897731 0 15.980468-7.082627 15.980468-15.980469 0-7.549567-5.106034-13.773846-12.085937-15.492187-1.039445-0.115159-2.025104-0.285156-4.00586-0.285156zm-30.037109 31.771484c-2.578183 0.0023-1.446635 0.0058-12.580078 0.0039h12.580078zm-12.654297 13.990234c18.477618 0.0036 6.344898 0.03833-3.199218 0.03906-8.897733 0-15.980469 7.082626-15.980469 15.980469 0 7.699488 5.308316 14.029527 12.501953 15.597657 0.0014 3.1e-4 0.0025 2e-3 0.0039 2e-3 0.873327 0.10664 1.828557 0.22265 3.47461 0.22265 8.745585 0 15.840128-7.084392 15.855468-15.83008v-13.775428c0-1.234456-1.00373-2.234377-2.240234-2.234374zm-8.917968 31.453126c0.477331 0 0.875822 0.0236 1.255859 0.0566-0.378948-0.0338-0.781777-0.0566-1.255859-0.0566zm12.699218 13.74805c-0.133219 0.0317-0.26649 0.0638-0.40039 0.0937 0.133983-0.03 0.267089-0.062 0.40039-0.0937zm-4.435547 0.70898c-0.157894 0.0133-0.316029 0.0263-0.474609 0.0371 0.158637-0.0108 0.316658-0.0238 0.474609-0.0371z" style="fill:#aaaaac;stroke-width:.48075131"/>
 <path id="TM" d="m116.95664 116.92346 2e-5 -2.65924-1.21559 2.7873-1.18332-2.7873 2.3e-4 2.65924h-0.68185v-4.19935h0.71489l1.17013 2.68286 1.15241-2.68286h0.72373v4.19935zm-4.96759-3.49597v3.49597h-0.71253v-3.49597h-1.1946v-0.70338h3.10057v0.70338" style="fill:#aaaaac;stroke-width:.48075131"/>
 <path d="m36.898438 61.111328c-16.495701 0-30.023438 13.527546-30.023438 30.023438 0 16.495884 13.527743 30.023434 30.023438 30.023434 3.104409 0 6.104005-0.47933 8.927734-1.36718-2.820437 0.87689-5.818921 1.3496-8.927734 1.3496-2.51669 0-4.305126-0.28361-6.634766-0.89257-3.396945-0.88898-6.172674-3.67447-6.173828-6.91407 0-3.9158 2.841022-6.76562 7.089844-6.76562 0.897962 0 1.546332 0.0809 2.24414 0.16602-7.195774-1.56658-12.505859-7.898625-12.505859-15.599614 0-8.897842 7.082736-15.980469 15.980469-15.980469 9.544117-7.3e-4 21.676836-0.03556 3.199218-0.03911-3.880659 0-7.015625-3.096946-7.015625-6.988281-0.0021-3.915531 3.167283-6.998047 7.089844-6.998047 36.689717 0.0063 19.677581-0.0189-3.273437-0.01753z" style="color-rendering:auto;color:#000000;dominant-baseline:auto;fill:#aaaaac;font-feature-settings:normal;font-variant-alternates:normal;font-variant-caps:normal;font-variant-ligatures:normal;font-variant-numeric:normal;font-variant-position:normal;image-rendering:auto;isolation:auto;mix-blend-mode:normal;opacity:.5;shape-padding:0;shape-rendering:auto;solid-color:#000000;text-decoration-color:#000000;text-decoration-line:none;text-decoration-style:solid;text-indent:0;text-orientation:mixed;text-transform:none;white-space:normal"/>
 <path d="m82.900391 15.109375c1.618595 0.101227 4.893785 0.533807 6.52539 0.955078 3.396945 0.888972 6.172675 3.674462 6.173828 6.914063 0 3.915805-2.842975 6.763672-7.091797 6.763672-0.670136 0-1.197744-0.0465-1.71289-0.103516 6.979903 1.718341 12.085937 7.94262 12.085937 15.492187 0 8.89784-7.082737 15.980469-15.980468 15.980469h-14.302735c0.185016 0.04937 0.375588 0.08398 0.576172 0.08398l10.416016 2e-3c3.880659 0 7.015625 3.094991 7.015625 6.986328 0.0018 3.72541-2.868296 6.690932-6.525391 6.970703h2.820313c16.495701 0 30.023439-13.527547 30.023439-30.023438 0-16.495885-13.527748-30.021484-30.023439-30.021484z" style="color-rendering:auto;color:#000000;dominant-baseline:auto;fill:#aaaaac;font-feature-settings:normal;font-variant-alternates:normal;font-variant-caps:normal;font-variant-ligatures:normal;font-variant-numeric:normal;font-variant-position:normal;image-rendering:auto;isolation:auto;mix-blend-mode:normal;opacity:.5;shape-padding:0;shape-rendering:auto;solid-color:#000000;text-decoration-color:#000000;text-decoration-line:none;text-decoration-style:solid;text-indent:0;text-orientation:mixed;text-transform:none;white-space:normal"/>
</svg>
