<svg width="128" height="128" version="1.1" viewBox="0 0 128 128" xmlns="http://www.w3.org/2000/svg">
 <path d="m64.000002 0a5.2705886 5.2705899 0 0 0-5.138979 4.1201036 60.235298 60.235308 0 0 0-33.585994 13.941076 5.2705886 5.2705899 0 0 0-2.686796-0.743531 5.2705886 5.2705899 0 0 0-5.270585 5.270595 5.2705886 5.2705899 0 0 0 0.742405 2.684983 60.235298 60.235308 0 0 0-13.968268 33.596246 5.2705886 5.2705891 0 0 0-4.0917852 5.130538 5.2705886 5.2705891 0 0 0 4.1200962 5.139201 60.235298 60.235308 0 0 0 13.941153 33.585698 5.2705886 5.2705891 0 0 0-0.743601 2.68686 5.2705886 5.2705891 0 0 0 5.270585 5.27063 5.2705886 5.2705891 0 0 0 2.677158-0.73749 60.235298 60.235308 0 0 0 33.604371 13.964 5.2705886 5.2705891 0 0 0 5.13024 4.09109 5.2705886 5.2705891 0 0 0 5.140329-4.12457 60.235298 60.235308 0 0 0 33.625599-13.91132 5.2705886 5.2705891 0 0 0 2.64583 0.71829 5.2705886 5.2705891 0 0 0 5.27058-5.27063 5.2705886 5.2705891 0 0 0-0.74058-2.68195 60.235298 60.235308 0 0 0 14.0172-33.610562 5.2705886 5.2705891 0 0 0 4.04104-5.119247 5.2705886 5.2705891 0 0 0-4.1246-5.140332 60.235298 60.235308 0 0 0-13.91362-33.622212 5.2705886 5.2705891 0 0 0 0.72056-2.649223 5.2705886 5.2705891 0 0 0-5.27058-5.270595 5.2705886 5.2705891 0 0 0-2.68318 0.74128 60.235298 60.235308 0 0 0-33.609335-14.016757 5.2705886 5.2705899 0 0 0-5.119243-4.0421722zm0 2.2592005a3.0117647 3.0117652 0 0 1 3.011764 3.0113948 3.0117647 3.0117652 0 0 1-3.011764 3.0117605 3.0117647 3.0117652 0 0 1-3.011773-3.0117605 3.0117647 3.0117652 0 0 1 3.011773-3.0113948zm-4.957516 4.7849494a5.2705886 5.2705899 0 0 0 4.957516 3.4970291 5.2705886 5.2705899 0 0 0 4.9292-3.4228691 57.22353 57.22354 0 0 1 31.755898 13.153511 5.2705886 5.2705891 0 0 0-0.54393 2.316423 5.2705886 5.2705891 0 0 0 5.27059 5.270584 5.2705886 5.2705891 0 0 0 2.32569-0.544377 57.22353 57.22354 0 0 1 13.16939 31.744382 5.2705886 5.2705891 0 0 0-3.44802 4.941178 5.2705886 5.2705891 0 0 0 3.42272 4.929133 57.22353 57.22354 0 0 1-13.15328 31.756106 5.2705886 5.2705891 0 0 0-2.3165-0.544 5.2705886 5.2705891 0 0 0-5.27059 5.27052 5.2705886 5.2705891 0 0 0 0.54182 2.32023 57.22353 57.22354 0 0 1-31.74174 13.17497 5.2705886 5.2705891 0 0 0-4.941248-3.44811 5.2705886 5.2705891 0 0 0-4.92785 3.41908 57.22353 57.22354 0 0 1-31.779392-13.10309 5.2705886 5.2705891 0 0 0 0.566065-2.36308 5.2705886 5.2705891 0 0 0-5.270592-5.27052 5.2705886 5.2705891 0 0 0-2.321465 0.5424 57.22353 57.22354 0 0 1-13.220594-31.726643 5.2705886 5.2705891 0 0 0 3.4950028-4.956996 5.2705886 5.2705891 0 0 0-3.4191048-4.928001 57.22353 57.22354 0 0 1 13.105393-31.778633 5.2705886 5.2705899 0 0 0 2.360768 0.565451 5.2705886 5.2705899 0 0 0 5.270592-5.270584 5.2705886 5.2705899 0 0 0-0.543473-2.323577 57.22353 57.22354 0 0 1 31.727134-13.220517zm4.957516 11.02607a5.2705886 5.2705891 0 0 0-5.149365 4.160378 42.164705 42.164709 0 0 0-37.015341 41.769413 42.164705 42.164709 0 0 0 37.023016 41.787069 5.2705886 5.2705891 0 0 0 5.14169 4.14275 5.2705886 5.2705891 0 0 0 5.149515-4.16001 42.164705 42.164709 0 0 0 37.015193-41.769809 42.164705 42.164709 0 0 0-37.022877-41.787104 5.2705886 5.2705891 0 0 0-5.141831-4.142687zm-41.411769 1.506252a3.0117647 3.0117652 0 0 1 3.011765 3.011772 3.0117647 3.0117652 0 0 1-3.011765 3.01176 3.0117647 3.0117652 0 0 1-3.011761-3.01176 3.0117647 3.0117652 0 0 1 3.011761-3.011772zm82.823527 0a3.0117647 3.0117652 0 0 1 3.01176 3.011772 3.0117647 3.0117652 0 0 1-3.01176 3.01176 3.0117647 3.0117652 0 0 1-3.01176-3.01176 3.0117647 3.0117652 0 0 1 3.01176-3.011772zm-41.411758 0.752949a3.0117647 3.0117652 0 0 1 3.011764 3.011383 3.0117647 3.0117652 0 0 1-3.011764 3.012527 3.0117647 3.0117652 0 0 1-3.011773-3.012527 3.0117647 3.0117652 0 0 1 3.011773-3.011383zm-4.923186 4.888469a5.2705886 5.2705891 0 0 0 4.923186 3.393509 5.2705886 5.2705891 0 0 0 4.915041-3.383726 39.152941 39.152948 0 0 1 34.237897 38.772338 39.152941 39.152948 0 0 1-34.229615 38.782159 5.2705886 5.2705891 0 0 0-4.923323-3.393489 5.2705886 5.2705891 0 0 0-4.914903 3.383659 39.152941 39.152948 0 0 1-34.238038-38.772329 39.152941 39.152948 0 0 1 34.229755-38.782121zm4.923186 23.723295a15.058823 15.058826 0 0 0-15.058828 15.058826 15.058823 15.058826 0 0 0 15.058828 15.058838 15.058823 15.058826 0 0 0 15.058819-15.058838 15.058823 15.058826 0 0 0-15.058819-15.058826zm-58.729411 12.047444a3.0117647 3.0117652 0 0 1 3.011765 3.011382 3.0117647 3.0117652 0 0 1-3.011765 3.011396 3.0117647 3.0117652 0 0 1-3.011764-3.011396 3.0117647 3.0117652 0 0 1 3.011764-3.011382zm117.45882 0a3.0117647 3.0117652 0 0 1 3.01177 3.011382 3.0117647 3.0117652 0 0 1-3.01177 3.011396 3.0117647 3.0117652 0 0 1-3.01176-3.011396 3.0117647 3.0117652 0 0 1 3.01176-3.011382zm-58.729408 40.658111a3.0117647 3.0117652 0 0 1 3.011764 3.01246 3.0117647 3.0117652 0 0 1-3.011764 3.01142 3.0117647 3.0117652 0 0 1-3.011773-3.01142 3.0117647 3.0117652 0 0 1 3.011773-3.01246zm-41.411769 0.75326a3.0117647 3.0117652 0 0 1 3.011765 3.01177 3.0117647 3.0117652 0 0 1-3.011765 3.01177 3.0117647 3.0117652 0 0 1-3.011761-3.01177 3.0117647 3.0117652 0 0 1 3.011761-3.01177zm82.823527 0a3.0117647 3.0117652 0 0 1 3.01176 3.01177 3.0117647 3.0117652 0 0 1-3.01176 3.01177 3.0117647 3.0117652 0 0 1-3.01176-3.01177 3.0117647 3.0117652 0 0 1 3.01176-3.01177zm-41.411758 17.31771a3.0117647 3.0117652 0 0 1 3.011764 3.01178 3.0117647 3.0117652 0 0 1-3.011764 3.01131 3.0117647 3.0117652 0 0 1-3.011773-3.01131 3.0117647 3.0117652 0 0 1 3.011773-3.01178z" style="color-rendering:auto;color:#000000;fill-rule:evenodd;fill:#aaaaac;image-rendering:auto;isolation:auto;mix-blend-mode:normal;shape-rendering:auto;solid-color:#000000"/>
</svg>
