<svg width="128" height="128" version="1.1" xmlns="http://www.w3.org/2000/svg">
 <path d="m65.325957 0.00629762c-1.537206-0.02257138-3.079049 0.01547862-4.619774 0.1150206-25.355556 0.95086598-48.92278 18.639118-57.0747 42.644419-8.4309465 23.160316-1.8394298 50.812924 16.219204 67.597433 17.829526 17.43745 46.204734 22.53437 69.051614 12.63778 23.256459-9.5253 39.487359-33.800157 39.090579-58.970516 0.0128-10.088629-2.39438-20.164453-7.00215-29.126433-10.3195-20.704568-32.606685-34.559108-55.664773-34.897703zm-4.927258 12.967863c1.996701 3.136694 3.289338 6.770997 5.017253 10.099731 0.908755 5.479611 6.949759 3.253219 10.891966 5.173644 3.583824-3.418355 6.886463-7.222496 10.649478-10.384793 3.110248 1.510732 6.222094 3.419955 8.999559 5.48121-0.806362 3.610398-2.45848 7.080363-3.584825 10.652352-2.982254 4.122511 1.764913 6.74699 3.364835 10.45981h12.544385c2.86706-0.832183 4.0065 1.318392 4.1473 3.853352 0.20479 2.291706 1.9705 4.902782 0.98495 6.964038-6.29782 1.377221-12.59625 2.766091-18.894075 4.143415-0.309299-2.0429-0.797078-4.057658-1.507427-5.998825-4.991755-14.582421-21.885925-23.480486-36.733197-19.306765-0.725635 0.171221-1.438674 0.379714-2.142396 0.607634-0.03767-0.02307-0.07482-0.04693-0.112494-0.07002v0.01254c-0.524774-2.445339-1.06015-4.903783-1.584922-7.349123-0.665567-3.943271-2.113797-7.93745-2.267389-11.855119 3.26384-1.126645 6.822366-1.983738 10.226999-2.483049zm-29.643547 13.557996c4.770325 4.352826 9.553771 8.705077 14.336797 13.057884-8.58401 6.785304-13.568545 18.163996-11.62193 29.151438 0.912953 6.960989 4.506196 13.23077 9.58453 17.901454-0.0038 0.08421-0.0087 0.168332-0.01254 0.252556h0.015c-2.124696 2.342918-4.237791 4.673632-6.349688 7.01655-2.419081 2.368523-4.403983 5.504922-7.104651 7.374131-2.662269-2.214899-5.233144-4.801467-7.434636-7.451652 1.63832-3.341535 4.069201-6.336396 6.014706-9.537103 4.210993-3.6232-0.83066-7.629385-1.227441-11.995149-4.786965-1.293086-9.753921-2.138574-14.419292-3.713322-0.325104-3.431156-0.314865-7.093666 0-10.524824 3.513427-1.190663 7.327241-1.599653 10.949463-2.483048 5.09415 0.40969 4.86516-5.019008 7.194647-8.309335-2.163096-3.571989-4.339091-7.142878-6.502185-10.714867-2.201492-2.022847-0.961652-4.109508 1.137445-5.556225 1.855909-1.357102 3.161445-4.238037 5.439733-4.468488zm63.469388 44.167254c3.036581 0.686832 6.08231 1.375783 9.12955 2.050452 3.25104 0.947411 6.95006 1.126653 9.91951 2.560566-0.58877 3.405553-1.54952 6.925631-2.73986 10.164746-3.71182 0.230451-7.52673-0.332073-11.276948-0.460101-5.234942-1.830804-6.193496 4.5319-9.764521 7.054057 1.267138 4.788263 3.007353 9.523999 3.967306 14.350669-2.815862 1.98443-5.989006 3.80473-9.112053 5.23866-2.790263-2.43254-5.044453-5.55823-7.617127-8.24683-2.188692-4.621817-6.782967-1.71417-10.80197-2.08545l-6.029705 10.98492c-0.652766 2.91904-3.083348 2.87863-5.387235 1.7904-2.099097-0.93461-5.248543-0.62665-6.579677-2.48305 1.651119-6.23497 3.291138-12.456957 4.942257-18.679132 0.03009-0.01651 0.0599-0.03354 0.08999-0.05005 4.223053 1.668489 8.803412 2.411323 13.411841 1.945428 13.356211-0.711786 24.991808-11.297908 27.848635-24.135324z" style="fill:#aaaaac;stroke-width:1.28011"/>
</svg>
