<?xml version="1.0" encoding="UTF-8" standalone="no"?>
<svg
   xmlns:dc="http://purl.org/dc/elements/1.1/"
   xmlns:cc="http://creativecommons.org/ns#"
   xmlns:rdf="http://www.w3.org/1999/02/22-rdf-syntax-ns#"
   xmlns:svg="http://www.w3.org/2000/svg"
   xmlns="http://www.w3.org/2000/svg"
   xmlns:sodipodi="http://sodipodi.sourceforge.net/DTD/sodipodi-0.dtd"
   xmlns:inkscape="http://www.inkscape.org/namespaces/inkscape"
   width="64"
   height="64"
   version="1"
   id="svg16"
   sodipodi:docname="logo.svg"
   inkscape:version="0.92.4 5da689c313, 2019-01-14">
  <metadata
     id="metadata22">
    <rdf:RDF>
      <cc:Work
         rdf:about="">
        <dc:format>image/svg+xml</dc:format>
        <dc:type
           rdf:resource="http://purl.org/dc/dcmitype/StillImage" />
        <dc:title></dc:title>
      </cc:Work>
    </rdf:RDF>
  </metadata>
  <defs
     id="defs20">
    <linearGradient
       gradientUnits="userSpaceOnUse"
       gradientTransform="matrix(0.28,0,0,0.28,-13.077914,-1.827826)"
       y2="81.527946"
       y1="6.5279498"
       x2="121.70683"
       x1="46.706837"
       id="linearGradient5232">
      <stop
         id="stop2"
         offset="0"
         style="stop-color:#aaaaac" />
      <stop
         id="stop4"
         offset="1"
         style="stop-color:#ffffff;stop-opacity:0" />
    </linearGradient>
  </defs>
  <sodipodi:namedview
     pagecolor="#ffffff"
     bordercolor="#666666"
     borderopacity="1"
     objecttolerance="10"
     gridtolerance="10"
     guidetolerance="10"
     inkscape:pageopacity="0"
     inkscape:pageshadow="2"
     inkscape:window-width="2504"
     inkscape:window-height="1410"
     id="namedview18"
     showgrid="false"
     inkscape:zoom="3.6875"
     inkscape:cx="-15.322034"
     inkscape:cy="32"
     inkscape:window-x="56"
     inkscape:window-y="30"
     inkscape:window-maximized="1"
     inkscape:current-layer="svg16" />
  <g
     id="computer-display"
     inkscape:label="#computer-display">
    <rect
       id="rect2"
       transform="matrix(0,-1,-1,0,0,0)"
       ry="2.5"
       rx="2.5"
       y="-48"
       x="-56"
       height="32"
       width="42"
       style="opacity:0.2" />
    <rect
       id="rect4"
       transform="matrix(0,-1,-1,0,0,0)"
       ry="2.5"
       rx="2.5"
       y="-48"
       x="-55"
       height="32"
       width="42"
       style="fill:#8e8e8e" />
    <rect
       id="rect6"
       transform="matrix(0,-1,-1,0,0,0)"
       ry="2.5"
       rx="2.5"
       y="-58"
       x="-50"
       height="52"
       width="40"
       style="opacity:0.2" />
    <rect
       id="rect8"
       transform="matrix(0,-1,-1,0,0,0)"
       ry="2.5"
       rx="2.5"
       y="-58"
       x="-49"
       height="52"
       width="40"
       style="fill:#4f4f4f" />
    <rect
       id="rect10"
       transform="matrix(0,-1,-1,0,0,0)"
       ry="0"
       rx="0"
       y="-54"
       x="-45"
       height="44"
       width="32"
       style="fill:#000000;fill-opacity:1" />
    <path
       id="path12"
       d="M 8.5,9 C 7.115,9 6,10.115 6,11.5 v 1 C 6,11.115 7.115,10 8.5,10 h 47 c 1.385,0 2.5,1.115 2.5,2.5 v -1 C 58,10.115 56.885,9 55.5,9 Z"
       style="opacity:0.1;fill:#ffffff"
       inkscape:connector-curvature="0" />
    <rect
       id="rect14"
       y="45"
       x="10"
       height="1"
       width="44"
       style="opacity:0.1;fill:#ffffff" />
  </g>
  <g
     transform="matrix(0.85714285,0,0,0.85714285,20,16.999997)"
     id="spinner"
     inkscape:label="#spinner">
    <rect
       id="rect10-3"
       style="fill-opacity:0;stroke-width:0.21538462"
       height="28"
       width="28"
       y="7.6293945e-06"
       x="-3.7060548e-07" />
    <path
       id="path12-6"
       style="fill:url(#linearGradient5232);stroke-width:0.28"
       d="M 14.000001,0 C 6.268013,0 0,6.2680128 0,14 0,21.731987 6.268013,28 14.000001,28 21.731985,28 28,21.731987 28,14 28,6.2680128 21.731985,0 14.000001,0 Z m 0,2.8 C 20.18559,2.8 25.2,7.8144108 25.2,14 25.2,20.185589 20.18559,25.2 14.000001,25.2 7.814411,25.2 2.8,20.185589 2.8,14 2.8,7.8144108 7.814411,2.8 14.000001,2.8 Z"
       inkscape:connector-curvature="0" />
  </g>
</svg>
