<?xml version="1.0" encoding="UTF-8" standalone="no"?>
<svg
   xmlns:dc="http://purl.org/dc/elements/1.1/"
   xmlns:cc="http://creativecommons.org/ns#"
   xmlns:rdf="http://www.w3.org/1999/02/22-rdf-syntax-ns#"
   xmlns:svg="http://www.w3.org/2000/svg"
   xmlns="http://www.w3.org/2000/svg"
   id="svg17"
   viewBox="0 0 52.916665 52.916668"
   version="1.1"
   height="200"
   width="200">
  <metadata
     id="metadata21">
    <rdf:RDF>
      <cc:Work
         rdf:about="">
        <dc:format>image/svg+xml</dc:format>
        <dc:type
           rdf:resource="http://purl.org/dc/dcmitype/StillImage" />
        <dc:title></dc:title>
      </cc:Work>
    </rdf:RDF>
  </metadata>
  <defs
     id="defs7">
    <linearGradient
       gradientUnits="userSpaceOnUse"
       gradientTransform="matrix(.28 0 0 .28 -13.077914 -1.827826)"
       y2="81.527946"
       y1="6.5279498"
       x2="121.70683"
       x1="46.706837"
       id="linearGradient5232">
      <stop
         id="stop2"
         offset="0"
         style="stop-color:#aaaaac" />
      <stop
         id="stop4"
         offset="1"
         style="stop-color:#ffffff;stop-opacity:0" />
    </linearGradient>
  </defs>
  <g
     id="monochrome-plymouth"
     transform="translate(0,-244.08332)">
    <rect
       x="0"
       style="fill:#000007"
       height="52.916664"
       width="52.916664"
       y="244.08331"
       id="background" />
    <g
       transform="matrix(1.7008928,0,0,1.7008928,2.645834,246.72914)"
       id="spinner">
      <rect
         id="rect10"
         style="fill-opacity:0;stroke-width:0.21538462"
         height="28"
         width="28"
         y="7.6293945e-06"
         x="-3.7060548e-07" />
      <path
         id="path12"
         style="fill:url(#linearGradient5232);stroke-width:0.28"
         d="M 14.000001,0 C 6.268013,0 0,6.2680128 0,14 0,21.731987 6.268013,28 14.000001,28 21.731985,28 28,21.731987 28,14 28,6.2680128 21.731985,0 14.000001,0 Z m 0,2.8 C 20.18559,2.8 25.2,7.8144108 25.2,14 25.2,20.185589 20.18559,25.2 14.000001,25.2 7.814411,25.2 2.8,20.185589 2.8,14 2.8,7.8144108 7.814411,2.8 14.000001,2.8 Z" />
    </g>
  </g>
</svg>
