<svg width="128" height="128" version="1.1" xmlns="http://www.w3.org/2000/svg">
 <g id="tux" transform="matrix(.19369797 0 0 .19369797 -57.403092 -18.171279)">
  <path transform="translate(310.7524,64.25268)" d="m327.31445 30.814453c-3.44884 0.05383-7.01539 0.225313-10.70312 0.519531-116.51 9.3775-85.61727 132.45594-87.35352 173.67969-2.55125 36.16-10.80656 63.09274-43.16406 101.74024-4.44897 5.48838-8.55788 11.21729-12.36523 17.1289-32.53525 45.78832-65.70931 108.59365-54.875 162.72266 6.41614-6.41389 14.19061-10.67891 25.45117-8.97266 23.98 3.63375 39.93092 33.07711 56.67969 69.03711 4.40372 9.19602 12.81667 19.73529 21.67773 30.78516 42.16627 5.13452 40.94698-39.26146-31.42969-83.6582-67.03045-41.72001-22.14917-120.34268 1.00781-158.32227 5.80979-6.54318 6.15653-3.22194-8.66796 24.32812-11.00119 20.8222-31.53147 68.87564-3.29297 106.34375 0.73795-26.68201 7.10163-53.89769 17.79882-79.34765 15.90756-36.06711 49.54107-99.18129 50.82422-148.41602-14.36403-11.83976-15.18679-25.53689-4.74414-33.36914 4.36518-3.27366 7.50691-5.5918 10.14649-7.53125a36.486376 23.634242 86.731112 0 1-13.77344-30.97656 36.485586 23.63373 86.731112 0 1 22.19141-37.81641 36.485586 23.63373 86.731112 0 1 24.99804 35.08399 36.486376 23.634242 86.731112 0 1-0.42773 10.77148c6.94682-2.18354 15.24681-2.81545 25.05078-0.27148a42.154029 32.763435 89.433792 0 1-0.97266-8.95899 42.154029 32.763435 89.433792 0 1 32.84961-43.04687 42.154029 32.763435 89.433792 0 1 1.36133 0.0508 42.154029 32.763435 89.433792 0 1 31.29492 41.20508 42.154029 32.763435 89.433792 0 1-11.86914 33.49023c15.5752 7.14591 17.73353 19.38903 11.04492 30.41211 0.0196 0.0773 0.0477 0.1508 0.0664 0.22852 9.4475 39.24125 33.42625 98.10211 48.6875 126.44336 7.88535 14.64422 23.57767 45.76127 30.36328 83.25586 4.3053-0.13692 9.05107 0.49069 14.12891 1.78515 17.7322-46.00188-15.02112-95.54848-30.01367-109.34961-5.92057-5.74127-6.33725-8.38662-3.55469-8.39062 0.45434-6.3e-4 1.00619 0.0786 1.62109 0.21679 1.28148 1.16052 2.59549 2.42189 3.92383 3.74805 0.39394 0.39333 0.78846 0.79188 1.18555 1.19922 0.56497 0.57952 1.13092 1.16228 1.70117 1.76953 0.59802 0.6369 1.1984 1.30022 1.80078 1.9668 0.72129 0.79805 1.44472 1.61777 2.16992 2.45703 0.49764 0.576 0.99371 1.15907 1.49219 1.75391 5.39507 6.43701 10.8163 13.95071 15.74023 22.26757 1.44832 2.44631 2.85193 4.96155 4.20118 7.53711 9e-3 0.0166 0.0186 0.0322 0.0273 0.0488 0.0121 0.0232 0.023 0.0471 0.0352 0.0703 0.63874 1.22175 1.26495 2.45686 1.87695 3.70508 0.04 0.0817 0.0812 0.16239 0.12109 0.24414 1.24592 2.55226 2.43114 5.15858 3.54688 7.81055 0.0691 0.1643 0.13651 0.32948 0.20508 0.49414 0.52 1.24855 1.02468 2.50725 1.51171 3.77539 0.0243 0.0634 0.05 0.12602 0.0742 0.18945 0.52352 1.36893 1.02776 2.74877 1.50977 4.13868 0.024 0.0694 0.0464 0.13955 0.0703 0.20898 0.43141 1.25049 0.84295 2.50939 1.23828 3.77539 0.0769 0.2464 0.15301 0.49333 0.22852 0.74023 0.39014 1.27574 0.76431 2.55783 1.11523 3.84766 0.0183 0.0673 0.0384 0.13384 0.0566 0.20117 0.37843 1.40006 0.73126 2.80966 1.06055 4.22461 0.0382 0.16427 0.0718 0.32968 0.10938 0.49414 0.2781 1.21819 0.5359 2.44207 0.77539 3.66992 0.0518 0.26556 0.10437 0.5309 0.15429 0.79688 0.52332 2.78751 0.94484 5.59665 1.25196 8.42383 0.073 0.67186 0.14117 1.34392 0.20117 2.01758 0.0379 0.42533 0.0709 0.85134 0.10351 1.27734 0.055 0.71903 0.10282 1.4394 0.14258 2.16016 0.0202 0.36565 0.0385 0.73159 0.0547 1.09765 0.0333 0.7546 0.0582 1.50948 0.0742 2.26563 7e-3 0.33133 0.0139 0.66254 0.0176 0.99414 9e-3 0.80467 7e-3 1.60998-4e-3 2.41601-6e-3 0.38995-0.015 0.7797-0.0254 1.16993-0.0178 0.67267-0.0438 1.34617-0.0762 2.01953-0.0149 0.30988-0.0249 0.61968-0.043 0.92968-4e-3 0.0722-0.0113 0.14456-0.0156 0.2168-0.0505 0.83427-0.11395 1.66901-0.1875 2.50391-0.0344 0.39011-0.0738 0.77972-0.11328 1.16992-0.0676 0.66796-0.14375 1.33581-0.22656 2.00391-0.0406 0.32739-0.0749 0.65502-0.11914 0.98242-0.12315 0.91039-0.26571 1.82032-0.41797 2.73047-0.06 0.35885-0.12482 0.7174-0.18945 1.07617-0.13035 0.72351-0.2706 1.44689-0.41992 2.16992-0.0562 0.27196-0.10714 0.54454-0.16602 0.81641-0.18246 0.84241-0.38087 1.68404-0.58984 2.52539 1.62556 0.68748 3.27104 1.42065 4.9375 2.20898 30.90707 15.05342 40.63782 27.99872 32.31054 46.72461 4.50104 0.0351 8.98244 0.46611 13.39258 2.04492 24.4841-65.39417-9.73507-130.58308-42.77148-175.43164-26.43534-39.08876-63.35095-68.41499-62.80078-119.21094 0.65753-59.71738 6.62499-170.9069-100.28907-169.23828zm73.96094 559.6211c-44.86449 35.03939-111.67642 50.58361-164.94336 4.54101 10.77689 14.62249 19.27737 29.41 17.96485 42.64063-0.5073 6.67992-2.08618 12.53822-4.5625 17.59179 17.45936 1.44547 35.76981-6.5823 66.87695-8.28515 20.28175-1.64399 45.89377 7.73418 75.44531 4.94726-4.25703-17.09933 2.99797-40.22825 9.21875-61.43554z" style="fill:#aaaaac"/>
  <path d="m638.95498 232.72997a13.565006 21.090005 2.00318 1 0 27.13851 0.0581 13.565006 21.090005 2.00318 1 0-27.13851-0.0581z" style="fill:#aaaaac"/>
  <path d="m583.35189 235.16256a16.323029 9.1826019 85.064337 1 1-18.23843 2.21838 16.323029 9.1826019 85.064337 1 1 18.23843-2.21838z" style="fill:#aaaaac"/>
  <path transform="matrix(1.25,0,0,1.25,185.454,-167.505)" d="m220.915 716.921c-40.442-21.416-99.252 4.124-77.902-54.066 4.276-13.238-6.375-33.008 0.581-45.926 8.139-15.698 25.58-12.209 36.045-22.674 10.318-10.891 16.859-29.649 36.044-26.742 19.184 2.907 31.945 26.461 45.344 55.229 9.883 20.638 44.941 49.664 42.65 72.758-2.696 35.5-43.027 42.19-82.762 21.421z" style="fill:none;stroke-width:8.2448597;stroke:#aaaaac"/>
  <path transform="matrix(-1.1685 .423145 .475283 1.16478 728.343 -213.821)" d="m220.274 718.402c-41.327-23.59-99.894 5.605-77.261-55.547 4.736-13.068-6.596-33.552 0.36-46.47 8.139-15.698 25.801-11.665 36.266-22.13 10.318-10.891 18.827-27.868 38.012-24.961 19.184 2.907 29.977 24.68 43.376 53.448 9.883 20.638 43.415 48.971 41.124 72.065-2.696 35.5-42.724 45.471-81.877 23.595z" style="fill:none;stroke-width:8.24576;stroke:#aaaaac"/>
  <path d="m822.18352 558.0575c-6.6941 11.67297-34.29008 30.19601-52.68126 25.36805-18.76593-4.73522-27.217-31.14855-23.54212-51.13877 3.4115-22.51207 23.54139-23.63094 48.78503-12.52638 27.13955 12.2917 35.34675 22.82667 27.43835 38.2971z" style="fill:#aaaaac"/>
  <path transform="matrix(1.25,0,0,1.25,185.454,-167.505)" d="m309.954 338.729c7.147-6.77 24.811-27.066 57.961-5.755 6.162 4.01 11.162 4.377 23.021 9.455 23.726 9.749 12.382 33.259-12.744 41.108-10.758 3.489-20.536 16.556-40.129 15.439-16.734-0.977-21.119-11.874-31.398-17.906-18.269-10.311-20.965-24.254-11.1-31.653 9.866-7.399 13.725-10.059 14.389-10.688z" style="fill:none;stroke-width:4.1224298;stroke:#aaaaac"/>
  <path transform="matrix(1.25,0,0,1.25,185.454,-167.505)" d="m391.251 357.645c-9.883 0.581-31.393 22.091-54.066 22.091s-32.17922-18.61013-36.95548-19.38309" style="fill:none;stroke-width:4.1224298;stroke:#aaaaac"/>
 </g>
</svg>
