<svg id="circle_of_friends__x5F__orange" width="128" height="128" enable-background="new 0 0 425.197 425.197" version="1.1" viewBox="0 0 128 128" xmlns="http://www.w3.org/2000/svg">
 <path d="m64.001953 0c-35.346937-9.4739031e-15 -64.001953 28.652792-64.001953 63.998047 0 35.347512 28.654564 64.001953 64.001953 64.001953 35.347388 0 63.998047-28.654441 63.998047-64.001953 0-35.345707-28.650659-63.998047-63.998047-63.998047zm20.945313 19.880859c1.326066 0.034499 2.661545 0.391488 3.890625 1.101563 3.938024 2.269982 5.28395 7.300097 3.011718 11.236328-2.269523 3.935329-7.302515 5.283959-11.238281 3.011719s-5.283951-7.302954-3.011719-11.238281c1.562781-2.704918 4.43031-4.187227 7.347657-4.111329zm-20.945313 8.767579c3.210566 0 6.323702 0.430602 9.283203 1.234374 0.521548 3.343336 2.493108 6.429014 5.650391 8.251954 3.155025 1.82294 6.811026 1.98753 9.962891 0.771484 5.954222 5.907282 9.819417 13.920239 10.384765 22.828125l-11.908203 0.1875c-1.050771-11.988866-11.111935-21.388672-23.373047-21.388672-3.530269 0-6.883869 0.784374-9.886719 2.179688l-5.794922-10.404297c4.726894-2.342231 10.05028-3.660156 15.681641-3.660156zm-19.603515 5.929687 6.113281 10.220703c-6.034149 4.244194-9.976563 11.262183-9.976563 19.199219 0 7.942454 3.942414 14.959676 9.976563 19.207031l-6.113281 10.220703c-7.082212-4.732328-12.358263-11.948116-14.583985-20.40625 2.633477-2.12142 4.322266-5.372895 4.322266-9.021484 0-3.646331-1.688337-6.89661-4.322266-9.017578 2.225722-8.458586 7.501773-15.672725 14.583985-20.402344zm-21.845704 21.193359c4.547625 0 8.232422 3.683889 8.232422 8.226563 0 4.54448-3.684797 8.230469-8.232422 8.230469-4.542207 0-8.226562-3.685538-8.226562-8.230469 0-4.542674 3.684355-8.226563 8.226562-8.226563zm64.822266 10.308594 11.908203 0.185547c-0.565348 8.907886-4.430091 16.918134-10.384765 22.828125-3.151865-1.216045-6.807866-1.049503-9.962891 0.773438-3.157735 1.819778-5.129295 4.90636-5.650391 8.251953-2.959501 0.805128-6.073089 1.232421-9.283203 1.232421-5.631813 1e-6 -10.954748-1.316118-15.681641-3.660156l5.794922-10.404297c3.003302 1.398024 6.356902 2.179688 9.886719 2.179688 12.261112 0 22.321824-9.401014 23.373047-21.386719zm-2.871094 25.589844c2.917487-0.076638 5.783544 1.403836 7.345703 4.109375 2.272232 3.93578 0.923597 8.969493-3.011718 11.242183-3.935766 2.26954-8.965598 0.92091-11.238282-3.01171-2.272232-3.93533-0.924047-8.965594 3.011719-11.238286 1.229786-0.710075 2.566448-1.066727 3.892578-1.101562z" style="fill:#aaaaac;stroke-width:.45155725"/>
</svg>
